<svg xmlns="http://www.w3.org/2000/svg" width="720" height="610" viewBox="0 0 720 610" role="img" aria-labelledby="title desc">
  <title id="title">AIRI：角色背后的系统</title><desc id="desc">本仓库独立绘制的架构示意。输入进入 Agent，与角色设定结合，输出到声音、形象和外部行动，环境再回传反馈。不是原版截图或运行结果。</desc>
  <defs><pattern id="grid" width="26" height="26" patternUnits="userSpaceOnUse"><circle cx="1" cy="1" r=".8" fill="#625177" opacity=".34"/></pattern><radialGradient id="glow"><stop stop-color="#503474" stop-opacity=".55"/><stop offset="1" stop-color="#14121d" stop-opacity="0"/></radialGradient><marker id="arrow" markerWidth="6" markerHeight="6" refX="5" refY="3" orient="auto"><path d="M0 0 6 3 0 6" fill="none" stroke="#9578bf" stroke-width="1.3"/></marker></defs>
  <rect width="720" height="610" rx="18" fill="#14121d"/><rect x="25" y="28" width="670" height="548" fill="url(#grid)"/><ellipse cx="368" cy="303" rx="305" ry="257" fill="url(#glow)"/>
  <g fill="none" stroke="#524062"><circle cx="363" cy="306" r="142" stroke-dasharray="3 7"/><circle cx="363" cy="306" r="219" stroke-opacity=".55"/></g>
  <g fill="none" stroke="#9578bf" stroke-width="1.5" marker-end="url(#arrow)"><path d="M180 145H227Q242 145 242 160V268H273"/><path d="M363 151V227"/><path d="M453 269H486Q501 269 501 253V151H534"/><path d="M453 332H534"/><path d="M362 386V464"/></g>
  <path d="M533 351H507V487Q507 516 478 516H224Q199 516 199 491V333H272" fill="none" stroke="#729c85" stroke-width="1.3" stroke-dasharray="5 5" marker-end="url(#arrow)"/>
  <g font-family="Segoe UI,Microsoft YaHei,sans-serif">
    <text x="36" y="52" font-size="12" fill="#968da8" letter-spacing="2">THE CHARACTER SYSTEM</text><text x="658" y="52" text-anchor="end" font-size="12" fill="#968da8">002</text>
    <rect x="55" y="101" width="144" height="87" rx="10" fill="#211b2d" stroke="#66517d"/><text x="74" y="126" fill="#a699bd" font-size="11" letter-spacing="1.5">INPUT</text><text x="74" y="154" fill="#f5f1fb" font-size="20">文字 / 声音</text><text x="74" y="174" fill="#b5aec4" font-size="11">语音识别 · 环境事件</text>
    <rect x="291" y="74" width="145" height="78" rx="10" fill="#211b2d" stroke="#66517d"/><text x="310" y="99" fill="#a699bd" font-size="11" letter-spacing="1.5">CHARACTER</text><text x="310" y="129" fill="#f5f1fb" font-size="20">身份与设定</text>
    <rect x="272" y="228" width="182" height="159" rx="17" fill="#30243f" stroke="#bda4ff" stroke-width="1.7"/><rect x="288" y="243" width="9" height="9" rx="2" fill="#bda4ff"/><text x="311" y="254" fill="#bda4ff" font-size="11" letter-spacing="1.6">ORCHESTRATION</text><text x="362" y="308" text-anchor="middle" fill="#f5f1fb" font-size="43" font-weight="600" letter-spacing="-2">Agent</text><text x="362" y="338" text-anchor="middle" fill="#c9b8e0" font-size="13">上下文 · 模型 · 决策</text><path d="M302 353H423" stroke="#625076"/><text x="362" y="375" text-anchor="middle" fill="#a997c1" font-size="11">AIRI CONNECTS THE PARTS</text>
    <rect x="534" y="107" width="144" height="88" rx="10" fill="#211b2d" stroke="#66517d"/><text x="553" y="134" fill="#a699bd" font-size="11" letter-spacing="1.5">EXPRESSION</text><text x="553" y="161" fill="#f5f1fb" font-size="20">形象与动作</text><text x="553" y="182" fill="#b5aec4" font-size="11">Live2D · VRM</text>
    <rect x="534" y="286" width="144" height="89" rx="10" fill="#211b2d" stroke="#66517d"/><text x="553" y="313" fill="#a699bd" font-size="11" letter-spacing="1.5">ACTION</text><text x="553" y="340" fill="#f5f1fb" font-size="20">游戏与工具</text><text x="553" y="361" fill="#b5aec4" font-size="11">专用服务 · 外部连接</text>
    <rect x="290" y="464" width="146" height="83" rx="10" fill="#211b2d" stroke="#66517d"/><text x="309" y="490" fill="#a699bd" font-size="11" letter-spacing="1.5">SPEECH</text><text x="309" y="520" fill="#f5f1fb" font-size="20">声音与口型</text>
    <rect x="109" y="380" width="123" height="43" rx="7" fill="#1d2927" stroke="#4d6b5e"/><text x="170" y="406" text-anchor="middle" fill="#b9edcf" font-size="13">环境状态反馈</text>
    <text x="36" y="583" fill="#968da8" font-size="11">独立结构示意 · 非原版截图 · 各能力有不同接入条件</text>
  </g>
</svg>
